<svg width="13" height="14" viewBox="0 0 13 14" fill="none" xmlns="http://www.w3.org/2000/svg">
<g clip-path="url(#clip0_765_2)">
<path d="M1.75 0.875C0.784766 0.875 0 1.65977 0 2.625V11.375C0 12.3402 0.784766 13.125 1.75 13.125H10.5C11.4652 13.125 12.25 12.3402 12.25 11.375V2.625C12.25 1.65977 11.4652 0.875 10.5 0.875H1.75ZM9.87383 3.17188L7.03555 6.41484L10.3742 10.8281H7.76016L5.71484 8.15117L3.37148 10.8281H2.07266L5.10781 7.3582L1.90586 3.17188H4.58555L6.43672 5.61914L8.575 3.17188H9.87383ZM8.84023 10.0516L4.19453 3.90742H3.4207L8.11836 10.0516H8.8375H8.84023Z" fill="white"/>
</g>
<defs>
<clipPath id="clip0_765_2">
<rect width="12.25" height="14" fill="white"/>
</clipPath>
</defs>
</svg>
